<?xml version="1.0" encoding="UTF-8"?>
<svg version="1.1" xmlns="http://www.w3.org/2000/svg" width="32" height="32">
<path d="M0 0 C1.03382812 -0.02835938 2.06765625 -0.05671875 3.1328125 -0.0859375 C5.875 0.375 5.875 0.375 7.71875 2.0859375 C9.04818599 4.71786145 9.27687072 6.43713499 9.25 9.375 C9.25773437 10.220625 9.26546875 11.06625 9.2734375 11.9375 C8.8041142 14.80865432 7.76989101 16.20941027 5.875 18.375 C6.9578125 18.1275 6.9578125 18.1275 8.0625 17.875 C10.875 18.375 10.875 18.375 12.3203125 19.9453125 C15.45183618 24.65154524 15.875 26.30264635 15.875 32.375 C5.315 32.375 -5.245 32.375 -16.125 32.375 C-16.125 26.05798345 -15.34095881 22.95558228 -11.125 18.375 C-8.3125 17.875 -8.3125 17.875 -6.125 18.375 C-6.599375 17.900625 -7.07375 17.42625 -7.5625 16.9375 C-9.50805802 13.74678485 -9.65365517 11.17279721 -9.9140625 7.49609375 C-10.06481327 5.18756943 -10.06481327 5.18756943 -11.125 2.375 C-7.30998852 0.61530836 -4.19435496 0.05256084 0 0 Z " fill="#0F0B07" transform="translate(16.125,-0.375)"/>
<path d="M0 0 C6.6 0 13.2 0 20 0 C20 3.63 20 7.26 20 11 C13.4 11 6.8 11 0 11 C0 7.37 0 3.74 0 0 Z " fill="#D0C8BC" transform="translate(6,19)"/>
<path d="M0 0 C0.66 0 1.32 0 2 0 C2.6875 2.75 2.6875 2.75 3 6 C1.5625 8.375 1.5625 8.375 0 10 C0.721875 9.835 1.44375 9.67 2.1875 9.5 C5 10 5 10 6.4453125 11.5703125 C9.57683618 16.27654524 10 17.92764635 10 24 C-0.56 24 -11.12 24 -22 24 C-22 17.57783317 -21.20571378 14.67301531 -17 10 C-12.20052812 8.14565859 -7.00614045 9.27689082 -2 10 C-1.87625 9.38125 -1.7525 8.7625 -1.625 8.125 C-1 6 -1 6 1 4 C0.6814823 1.89179203 0.6814823 1.89179203 0 0 Z M-16 11 C-16 14.63 -16 18.26 -16 22 C-9.4 22 -2.8 22 4 22 C4 18.37 4 14.74 4 11 C-2.6 11 -9.2 11 -16 11 Z " fill="#020202" transform="translate(22,8)"/>
<path d="M0 0 C0.99 2.31 1.98 4.62 3 7 C2.01 7.33 1.02 7.66 0 8 C-0.73323796 10.01508358 -0.73323796 10.01508358 -1 12 C-3.64 12 -6.28 12 -9 12 C-10 5.25 -10 5.25 -10 3 C-3.375 0 -3.375 0 0 0 Z " fill="#6E6657" transform="translate(21,6)"/>
<path d="M0 0 C0.33 0 0.66 0 1 0 C1 3.3 1 6.6 1 10 C7.6 10 14.2 10 21 10 C21 6.7 21 3.4 21 0 C21.33 1.32 21.66 2.64 22 4 C22.99 4.33 23.98 4.66 25 5 C25.33 6.98 25.66 8.96 26 11 C16.1 11 6.2 11 -4 11 C-3.67 9.02 -3.34 7.04 -3 5 C-2.01 4.67 -1.02 4.34 0 4 C0 2.68 0 1.36 0 0 Z " fill="#4A525E" transform="translate(5,20)"/>
<path d="M0 0 C1.98 0 3.96 0 6 0 C6 3.63 6 7.26 6 11 C2.37 11 -1.26 11 -5 11 C-4.34 9.68 -3.68 8.36 -3 7 C-3 6.01 -3 5.02 -3 4 C-1.68 4.33 -0.36 4.66 1 5 C0.67 3.35 0.34 1.7 0 0 Z " fill="#D1CABE" transform="translate(20,19)"/>
<path d="M0 0 C1.79244141 0.01740234 1.79244141 0.01740234 3.62109375 0.03515625 C5.41740234 0.04869141 5.41740234 0.04869141 7.25 0.0625 C8.17683594 0.07410156 9.10367187 0.08570312 10.05859375 0.09765625 C10.38859375 1.74765625 10.71859375 3.39765625 11.05859375 5.09765625 C10.39859375 4.76765625 9.73859375 4.43765625 9.05859375 4.09765625 C9.05859375 3.43765625 9.05859375 2.77765625 9.05859375 2.09765625 C8.44371094 2.38640625 7.82882813 2.67515625 7.1953125 2.97265625 C6.38707031 3.34390625 5.57882813 3.71515625 4.74609375 4.09765625 C3.54533203 4.65453125 3.54533203 4.65453125 2.3203125 5.22265625 C0.05859375 6.09765625 0.05859375 6.09765625 -2.94140625 6.09765625 C-3.32359392 4.44150968 -3.65535727 2.77308601 -3.94140625 1.09765625 C-2.94140625 0.09765625 -2.94140625 0.09765625 0 0 Z " fill="#926645" transform="translate(11.94140625,1.90234375)"/>
<path d="M0 0 C2.625 -0.1875 2.625 -0.1875 5 0 C5 1.32 5 2.64 5 4 C3.68 4.33 2.36 4.66 1 5 C1 6.32 1 7.64 1 9 C0.01 8.67 -0.98 8.34 -2 8 C-2.20086443 4.28400809 -2.1519437 3.22791555 0 0 Z " fill="#6B625C" transform="translate(16,20)"/>
<path d="M0 0 C0.33 1.32 0.66 2.64 1 4 C1.99 4.33 2.98 4.66 4 5 C4.33 6.98 4.66 8.96 5 11 C3.35 11 1.7 11 0 11 C0 7.37 0 3.74 0 0 Z " fill="#344259" transform="translate(26,20)"/>
<path d="M0 0 C3.3 0 6.6 0 10 0 C9.67 1.32 9.34 2.64 9 4 C6.36 4 3.72 4 1 4 C0.67 2.68 0.34 1.36 0 0 Z " fill="#F3D9AD" transform="translate(11,14)"/>
<path d="M0 0 C0 1.32 0 2.64 0 4 C-5.41538462 5.23076923 -5.41538462 5.23076923 -8.375 4.0625 C-8.91125 3.711875 -9.4475 3.36125 -10 3 C-3.375 0 -3.375 0 0 0 Z " fill="#EED5AA" transform="translate(21,6)"/>
<path d="M0 0 C0 0.66 0 1.32 0 2 C-4.95 3.485 -4.95 3.485 -10 5 C-10 5.66 -10 6.32 -10 7 C-9.34 7.33 -8.68 7.66 -8 8 C-8.66 8 -9.32 8 -10 8 C-10 8.66 -10 9.32 -10 10 C-10.99 9.67 -11.98 9.34 -13 9 C-12.80859375 6.64453125 -12.80859375 6.64453125 -12 4 C-9.78515625 2.63671875 -9.78515625 2.63671875 -7.0625 1.6875 C-6.16660156 1.36136719 -5.27070313 1.03523437 -4.34765625 0.69921875 C-2 0 -2 0 0 0 Z " fill="#3F3326" transform="translate(21,4)"/>
<path d="M0 0 C2.31 0 4.62 0 7 0 C6.34 0.66 5.68 1.32 5 2 C4.34 1.67 3.68 1.34 3 1 C2.34 2.32 1.68 3.64 1 5 C0.01 4.67 -0.98 4.34 -2 4 C-1.34 2.68 -0.68 1.36 0 0 Z " fill="#A49A90" transform="translate(13,19)"/>
</svg>
