<?xml version="1.0" encoding="UTF-8"?>
<svg version="1.1" xmlns="http://www.w3.org/2000/svg" width="32" height="32">
<path d="M0 0 C9.09090909 0.36363636 9.09090909 0.36363636 13.125 3.1875 C15 6 15 6 15.625 9 C14.78156913 13.04846818 13.30713322 14.57476897 10 17 C7.1875 16.8125 7.1875 16.8125 5 16 C5.62759865 13.07120629 6.58622659 10.63904371 8 8 C6.68 7.01 5.36 6.02 4 5 C2.02 9.29 0.04 13.58 -2 18 C-11.09090909 17.63636364 -11.09090909 17.63636364 -15.125 14.8125 C-17 12 -17 12 -17.625 9 C-16.78156913 4.95153182 -15.30713322 3.42523103 -12 1 C-9.1875 1.1875 -9.1875 1.1875 -7 2 C-7.62759865 4.92879371 -8.58622659 7.36095629 -10 10 C-8.68 10.99 -7.36 11.98 -6 13 C-4.02 8.71 -2.04 4.42 0 0 Z " fill="#BB1A72" transform="translate(17,7)"/>
<path d="M0 0 C0.721875 0.268125 1.44375 0.53625 2.1875 0.8125 C1.55990135 3.74129371 0.60127341 6.17345629 -0.8125 8.8125 C0.5075 10.4625 1.8275 12.1125 3.1875 13.8125 C2.5275 14.4725 1.8675 15.1325 1.1875 15.8125 C-1.95432232 15.64714093 -3.57726385 14.98415881 -6.125 13.125 C-7.8125 10.8125 -7.8125 10.8125 -8.375 7.875 C-7.50336467 3.12942989 -5.12257324 -0.34150488 0 0 Z " fill="#EB6D2D" transform="translate(7.8125,8.1875)"/>
<path d="M0 0 C1.65 0.33 3.3 0.66 5 1 C2.95452036 6.8353277 0.94446499 12.55273977 -2 18 C-3.65 17.67 -5.3 17.34 -7 17 C-4.95452036 11.1646723 -2.94446499 5.44726023 0 0 Z " fill="#E03F46" transform="translate(17,7)"/>
<path d="M0 0 C0 4.62 0 9.24 0 14 C-5 10 -5 10 -5.5625 7 C-5.03694167 4.19702224 -3.54600049 0 0 0 Z " fill="#EF7F24" transform="translate(5,9)"/>
<path d="M0 0 C1.65 0.33 3.3 0.66 5 1 C4.38385645 2.81552978 3.75681772 4.6273653 3.125 6.4375 C2.60292969 7.95150391 2.60292969 7.95150391 2.0703125 9.49609375 C1 12 1 12 -1 13 C-1.02696365 11.20841511 -1.04637917 9.41671527 -1.0625 7.625 C-1.07410156 6.62726562 -1.08570313 5.62953125 -1.09765625 4.6015625 C-1 2 -1 2 0 0 Z " fill="#D73350" transform="translate(17,7)"/>
<path d="M0 0 C0.33 0 0.66 0 1 0 C1 3.3 1 6.6 1 10 C0.01 9.34 -0.98 8.68 -2 8 C-2.3125 5 -2.3125 5 -2 2 C-1.34 1.34 -0.68 0.68 0 0 Z " fill="#F38E1D" transform="translate(2,11)"/>
<path d="M0 0 C0.66 0 1.32 0 2 0 C2 2.64 2 5.28 2 8 C0.68 7.67 -0.64 7.34 -2 7 C-1.34 4.69 -0.68 2.38 0 0 Z " fill="#E64C40" transform="translate(12,17)"/>
</svg>
